bicep_curl
version=1
nRows=181
nColumns=3
inDegrees=yes

# SIMM Motion File Header:
name bicep_curl
datacolumns 3
datarows 181
otherdata 1
range 0.0000 0.1800
endheader
time	/jointset/r_shoulder/r_shoulder_elev/value	/jointset/r_elbow/r_elbow_flex/value
0.0000	0.0000	54.0400
0.0010	0.0000	54.1167
0.0020	0.0000	54.1934
0.0030	0.0000	54.2702
0.0040	0.0000	54.3469
0.0050	0.0000	54.4236
0.0060	0.0000	54.5003
0.0070	0.0000	54.5770
0.0080	0.0000	54.6538
0.0090	0.0000	54.7305
0.0100	0.0000	54.8072
0.0110	0.0000	54.8839
0.0120	0.0000	54.9606
0.0130	0.0000	55.0374
0.0140	0.0000	55.1141
0.0150	0.0000	55.1908
0.0160	0.0000	55.2675
0.0170	0.0000	55.3442
0.0180	0.0000	55.4210
0.0190	0.0000	55.4977
0.0200	0.0000	55.5744
0.0210	0.0000	55.6511
0.0220	0.0000	55.7278
0.0230	0.0000	55.8046
0.0240	0.0000	55.8813
0.0250	0.0000	55.9580
0.0260	0.0000	56.0347
0.0270	0.0000	56.1114
0.0280	0.0000	56.1882
0.0290	0.0000	56.2649
0.0300	0.0000	56.3416
0.0310	0.0000	56.4183
0.0320	0.0000	56.4950
0.0330	0.0000	56.5718
0.0340	0.0000	56.6485
0.0350	0.0000	56.7252
0.0360	0.0000	56.8019
0.0370	0.0000	56.8786
0.0380	0.0000	56.9554
0.0390	0.0000	57.0321
0.0400	0.0000	57.1088
0.0410	0.0000	57.1855
0.0420	0.0000	57.2622
0.0430	0.0000	57.3390
0.0440	0.0000	57.4157
0.0450	0.0000	57.4924
0.0460	0.0000	57.5691
0.0470	0.0000	57.6458
0.0480	0.0000	57.7226
0.0490	0.0000	57.7993
0.0500	0.0000	57.8760
0.0510	0.0000	57.9527
0.0520	0.0000	58.0294
0.0530	0.0000	58.1062
0.0540	0.0000	58.1829
0.0550	0.0000	58.2596
0.0560	0.0000	58.3363
0.0570	0.0000	58.4130
0.0580	0.0000	58.4898
0.0590	0.0000	58.5665
0.0600	0.0000	58.6432
0.0610	0.0000	58.7199
0.0620	0.0000	58.7966
0.0630	0.0000	58.8734
0.0640	0.0000	58.9501
0.0650	0.0000	59.0268
0.0660	0.0000	59.1035
0.0670	0.0000	59.1802
0.0680	0.0000	59.2570
0.0690	0.0000	59.3337
0.0700	0.0000	59.4104
0.0710	0.0000	59.4871
0.0720	0.0000	59.5638
0.0730	0.0000	59.6406
0.0740	0.0000	59.7173
0.0750	0.0000	59.7940
0.0760	0.0000	59.8707
0.0770	0.0000	59.9474
0.0780	0.0000	60.0242
0.0790	0.0000	60.1009
0.0800	0.0000	60.1776
0.0810	0.0000	60.2543
0.0820	0.0000	60.3310
0.0830	0.0000	60.4078
0.0840	0.0000	60.4845
0.0850	0.0000	60.5612
0.0860	0.0000	60.6379
0.0870	0.0000	60.7146
0.0880	0.0000	60.7914
0.0890	0.0000	60.8681
0.0900	0.0000	60.9448
0.0910	0.0000	61.0215
0.0920	0.0000	61.0982
0.0930	0.0000	61.1750
0.0940	0.0000	61.2517
0.0950	0.0000	61.3284
0.0960	0.0000	61.4051
0.0970	0.0000	61.4818
0.0980	0.0000	61.5586
0.0990	0.0000	61.6353
0.1000	0.0000	61.7120
0.1010	0.0000	61.7887
0.1020	0.0000	61.8654
0.1030	0.0000	61.9422
0.1040	0.0000	62.0189
0.1050	0.0000	62.0956
0.1060	0.0000	62.1723
0.1070	0.0000	62.2490
0.1080	0.0000	62.3258
0.1090	0.0000	62.4025
0.1100	0.0000	62.4792
0.1110	0.0000	62.5559
0.1120	0.0000	62.6326
0.1130	0.0000	62.7094
0.1140	0.0000	62.7861
0.1150	0.0000	62.8628
0.1160	0.0000	62.9395
0.1170	0.0000	63.0162
0.1180	0.0000	63.0930
0.1190	0.0000	63.1697
0.1200	0.0000	63.2464
0.1210	0.0000	63.3231
0.1220	0.0000	63.3998
0.1230	0.0000	63.4766
0.1240	0.0000	63.5533
0.1250	0.0000	63.6300
0.1260	0.0000	63.7067
0.1270	0.0000	63.7834
0.1280	0.0000	63.8602
0.1290	0.0000	63.9369
0.1300	0.0000	64.0136
0.1310	0.0000	64.0903
0.1320	0.0000	64.1670
0.1330	0.0000	64.2438
0.1340	0.0000	64.3205
0.1350	0.0000	64.3972
0.1360	0.0000	64.4739
0.1370	0.0000	64.5506
0.1380	0.0000	64.6274
0.1390	0.0000	64.7041
0.1400	0.0000	64.7808
0.1410	0.0000	64.8575
0.1420	0.0000	64.9342
0.1430	0.0000	65.0110
0.1440	0.0000	65.0877
0.1450	0.0000	65.1644
0.1460	0.0000	65.2411
0.1470	0.0000	65.3178
0.1480	0.0000	65.3946
0.1490	0.0000	65.4713
0.1500	0.0000	65.5480
0.1510	0.0000	65.6247
0.1520	0.0000	65.7014
0.1530	0.0000	65.7782
0.1540	0.0000	65.8549
0.1550	0.0000	65.9316
0.1560	0.0000	66.0083
0.1570	0.0000	66.0850
0.1580	0.0000	66.1618
0.1590	0.0000	66.2385
0.1600	0.0000	66.3152
0.1610	0.0000	66.3919
0.1620	0.0000	66.4686
0.1630	0.0000	66.5454
0.1640	0.0000	66.6221
0.1650	0.0000	66.6988
0.1660	0.0000	66.7755
0.1670	0.0000	66.8522
0.1680	0.0000	66.9290
0.1690	0.0000	67.0057
0.1700	0.0000	67.0824
0.1710	0.0000	67.1591
0.1720	0.0000	67.2358
0.1730	0.0000	67.3126
0.1740	0.0000	67.3893
0.1750	0.0000	67.4660
0.1760	0.0000	67.5427
0.1770	0.0000	67.6194
0.1780	0.0000	67.6962
0.1790	0.0000	67.7729
0.1800	0.0000	67.8496
